<svg width="31" height="29" viewBox="0 0 31 29" fill="none" xmlns="http://www.w3.org/2000/svg">
<rect width="31" height="29" rx="6" fill="#F5AD47"/>
<g clip-path="url(#clip0_115_3893)">
<path d="M15.9997 17.9333C17.6198 17.9333 18.9331 16.62 18.9331 15C18.9331 13.38 17.6198 12.0667 15.9997 12.0667C14.3797 12.0667 13.0664 13.38 13.0664 15C13.0664 16.62 14.3797 17.9333 15.9997 17.9333Z" fill="#F3F3F3"/>
<path d="M13.2497 5.83334L11.5722 7.66668H8.66634C7.65801 7.66668 6.83301 8.49168 6.83301 9.50001V20.5C6.83301 21.5083 7.65801 22.3333 8.66634 22.3333H23.333C24.3413 22.3333 25.1663 21.5083 25.1663 20.5V9.50001C25.1663 8.49168 24.3413 7.66668 23.333 7.66668H20.4272L18.7497 5.83334H13.2497ZM15.9997 19.5833C13.4697 19.5833 11.4163 17.53 11.4163 15C11.4163 12.47 13.4697 10.4167 15.9997 10.4167C18.5297 10.4167 20.583 12.47 20.583 15C20.583 17.53 18.5297 19.5833 15.9997 19.5833Z" fill="#F3F3F3"/>
</g>
<defs>
<clipPath id="clip0_115_3893">
<rect width="22" height="22" fill="white" transform="translate(5 4)"/>
</clipPath>
</defs>
</svg>
