<svg width="32" height="32" viewBox="0 0 32 32" fill="none" xmlns="http://www.w3.org/2000/svg">
<circle cx="16" cy="16" r="15.5" stroke="#D72C0D"/>
<path d="M12.2462 22.9178C11.8421 22.9178 11.5 22.7778 11.22 22.4978C10.94 22.2178 10.8 21.8758 10.8 21.4717V11.3178H10.6C10.4297 11.3178 10.2872 11.2604 10.1723 11.1455C10.0574 11.0307 10 10.8881 10 10.7178C10 10.5476 10.0574 10.405 10.1723 10.2902C10.2872 10.1753 10.4297 10.1178 10.6 10.1178H13.6C13.6 9.91682 13.6702 9.74862 13.8108 9.61324C13.9513 9.47785 14.122 9.41016 14.3231 9.41016H17.6769C17.878 9.41016 18.0487 9.47785 18.1892 9.61324C18.3298 9.74862 18.4 9.91682 18.4 10.1178H21.4C21.5703 10.1178 21.7128 10.1753 21.8277 10.2902C21.9426 10.405 22 10.5476 22 10.7178C22 10.8881 21.9426 11.0307 21.8277 11.1455C21.7128 11.2604 21.5703 11.3178 21.4 11.3178H21.2V21.4717C21.2 21.8758 21.06 22.2178 20.78 22.4978C20.5 22.7778 20.1579 22.9178 19.7538 22.9178H12.2462ZM12 11.3178V21.4717C12 21.5435 12.0231 21.6025 12.0692 21.6486C12.1154 21.6948 12.1744 21.7179 12.2462 21.7179H19.7538C19.8256 21.7179 19.8846 21.6948 19.9308 21.6486C19.9769 21.6025 20 21.5435 20 21.4717V11.3178H12ZM13.9231 19.5179C13.9231 19.6881 13.9805 19.8307 14.0954 19.9455C14.2103 20.0604 14.3528 20.1178 14.5231 20.1178C14.6933 20.1178 14.8359 20.0604 14.9508 19.9455C15.0656 19.8307 15.1231 19.6881 15.1231 19.5179V13.5178C15.1231 13.3476 15.0656 13.205 14.9508 13.0901C14.8359 12.9753 14.6933 12.9178 14.5231 12.9178C14.3528 12.9178 14.2103 12.9753 14.0954 13.0901C13.9805 13.205 13.9231 13.3476 13.9231 13.5178V19.5179ZM16.8769 19.5179C16.8769 19.6881 16.9344 19.8307 17.0492 19.9455C17.1641 20.0604 17.3067 20.1178 17.4769 20.1178C17.6472 20.1178 17.7897 20.0604 17.9046 19.9455C18.0195 19.8307 18.0769 19.6881 18.0769 19.5179V13.5178C18.0769 13.3476 18.0195 13.205 17.9046 13.0901C17.7897 12.9753 17.6472 12.9178 17.4769 12.9178C17.3067 12.9178 17.1641 12.9753 17.0492 13.0901C16.9344 13.205 16.8769 13.3476 16.8769 13.5178V19.5179ZM12 11.3178V21.4717C12 21.5435 12.0231 21.6025 12.0692 21.6486C12.1154 21.6948 12.1744 21.7179 12.2462 21.7179H12V11.3178Z" fill="#D72C0D"/>
</svg>
