<svg width="32" height="32" viewBox="0 0 32 32" fill="none" xmlns="http://www.w3.org/2000/svg">
<circle cx="16" cy="16" r="15.5" stroke="#848A93"/>
<path d="M17.4422 10.8878L10.3592 17.9708C10.3482 17.9818 10.3372 17.9927 10.3264 18.0036C10.1639 18.1657 10.0201 18.3092 9.91869 18.4882L10.3477 18.7311L9.91869 18.4882C9.81733 18.6673 9.76825 18.8644 9.71282 19.0872C9.70912 19.1021 9.70538 19.1171 9.7016 19.1322L9.05042 21.7369C9.0482 21.7458 9.04597 21.7547 9.04373 21.7636C9.00449 21.9203 8.96258 22.0877 8.94883 22.2282C8.9337 22.3829 8.93722 22.644 9.14664 22.8534C9.35605 23.0628 9.6171 23.0663 9.77183 23.0512C9.91237 23.0374 10.0797 22.9955 10.2364 22.9563C10.2453 22.9541 10.2542 22.9518 10.2631 22.9496L12.8678 22.2984C12.883 22.2946 12.898 22.2909 12.9129 22.2872C13.1356 22.2318 13.3328 22.1827 13.5118 22.0813C13.6908 21.98 13.8343 21.8361 13.9965 21.6737C14.0073 21.6628 14.0182 21.6519 14.0293 21.6408L14.0293 21.6408L21.1122 14.5579L21.1355 14.5346C21.4489 14.2212 21.719 13.9512 21.9062 13.7058C22.1068 13.4429 22.2587 13.1505 22.2587 12.7901C22.2587 12.4297 22.1068 12.1373 21.9062 11.8744C21.719 11.6291 21.4489 11.359 21.1355 11.0456L21.1122 11.0223L20.9777 10.8878L20.9544 10.8645C20.641 10.5511 20.371 10.281 20.1256 10.0939C19.8627 9.89325 19.5703 9.74136 19.2099 9.74136C18.8495 9.74136 18.5571 9.89325 18.2942 10.0938C18.0489 10.281 17.7788 10.5511 17.4654 10.8645L17.4604 10.8696L17.4422 10.8878Z" stroke="#848A93"/>
<path d="M16.6667 12.0001L19.0001 9.66675L21.0001 11.0001L22.3334 13.0001L20.0001 15.3334L16.6667 12.0001Z" fill="#848A93"/>
</svg>
