<svg width="32" height="32" viewBox="0 0 32 32" fill="none" xmlns="http://www.w3.org/2000/svg">
<circle cx="16" cy="16" r="16" fill="white"/>
<mask id="mask0_210_7168" style="mask-type:alpha" maskUnits="userSpaceOnUse" x="4" y="4" width="24" height="24">
<rect x="4" y="4" width="24" height="24" fill="#D9D9D9"/>
</mask>
<g mask="url(#mask0_210_7168)">
<path d="M15.546 15.9648C15.9906 15.9648 16.3686 15.809 16.68 15.4976C16.9914 15.1862 17.1471 14.8082 17.1471 14.3636C17.1471 13.919 16.9914 13.541 16.68 13.2296C16.3686 12.9182 15.9906 12.7625 15.546 12.7625C15.1014 12.7625 14.7234 12.9182 14.412 13.2296C14.1006 13.541 13.9448 13.919 13.9448 14.3636C13.9448 14.8082 14.1006 15.1862 14.412 15.4976C14.7234 15.809 15.1014 15.9648 15.546 15.9648ZM15.546 23.332C17.4299 21.6475 18.8539 20.0402 19.8182 18.51C20.7824 16.9798 21.2645 15.6586 21.2645 14.5466C21.2645 12.814 20.7126 11.3973 19.6088 10.2964C18.5049 9.19554 17.1507 8.6451 15.546 8.6451C13.9413 8.6451 12.587 9.19554 11.4832 10.2964C10.3794 11.3973 9.82747 12.814 9.82747 14.5466C9.82747 15.6586 10.3096 16.9798 11.2738 18.51C12.238 20.0402 13.6621 21.6475 15.546 23.332ZM15.546 24.8504C15.4357 24.8504 15.3284 24.832 15.224 24.795C15.1196 24.7581 15.0246 24.7044 14.939 24.634C12.7595 22.6727 11.134 20.8525 10.0624 19.1733C8.99086 17.4941 8.45508 15.9519 8.45508 14.5466C8.45508 12.3296 9.16886 10.563 10.5964 9.24689C12.024 7.93077 13.6738 7.27271 15.546 7.27271C17.4181 7.27271 19.068 7.93077 20.4955 9.24689C21.9231 10.563 22.6369 12.3296 22.6369 14.5466C22.6369 15.9519 22.1011 17.4941 21.0296 19.1733C19.958 20.8525 18.3325 22.6727 16.153 24.634C16.0732 24.7044 15.9797 24.7581 15.8724 24.795C15.7651 24.832 15.6563 24.8504 15.546 24.8504Z" fill="#3FB94D"/>
</g>
</svg>
