<svg width="35" height="34" viewBox="0 0 35 34" fill="none" xmlns="http://www.w3.org/2000/svg">
<rect x="0.5" y="0.5" width="33.6019" height="33" rx="16.5" stroke="white"/>
<mask id="mask0_115_3046" style="mask-type:alpha" maskUnits="userSpaceOnUse" x="7" y="7" width="20" height="20">
<rect x="7.86426" y="7.72729" width="18.8738" height="18.5455" fill="#D9D9D9"/>
</mask>
<g mask="url(#mask0_115_3046)">
<path fill-rule="evenodd" clip-rule="evenodd" d="M9.91719 18.1677V17.9883C9.94396 17.4578 10.117 16.9438 10.4185 16.4993C10.9203 15.9653 11.2638 15.3109 11.4129 14.6048C11.4129 14.059 11.4129 13.5055 11.4614 12.9598C11.7121 10.3325 14.3559 8.51593 16.9674 8.51593H17.0321C19.6435 8.51593 22.2874 10.3325 22.5461 12.9598C22.5946 13.5055 22.5461 14.059 22.5865 14.6048C22.7377 15.3125 23.0809 15.9689 23.581 16.5071C23.8847 16.9477 24.058 17.4598 24.0823 17.9883V18.1599C24.1003 18.8726 23.8505 19.5676 23.3789 20.1167C22.7556 20.7587 21.9099 21.1582 21.0018 21.2394C18.339 21.52 15.6524 21.52 12.9895 21.2394C12.0825 21.1547 11.238 20.7558 10.6125 20.1167C10.1482 19.5672 9.9017 18.8763 9.91719 18.1677Z" stroke="white" stroke-width="1.5" stroke-linecap="round" stroke-linejoin="round"/>
<path d="M14.9624 23.9525C15.3785 24.4656 15.9895 24.7977 16.6601 24.8752C17.3308 24.9528 18.0059 24.7694 18.536 24.3657C18.699 24.2462 18.8457 24.1074 18.9726 23.9525" stroke="white" stroke-width="1.5" stroke-linecap="round" stroke-linejoin="round"/>
<rect width="5" height="5" rx="2.5" transform="matrix(1 0 0 -1 19 12.8782)" fill="#D72C0D"/>
</g>
</svg>
