<svg width="35" height="34" viewBox="0 0 35 34" fill="none" xmlns="http://www.w3.org/2000/svg">
<rect x="0.5" y="0.5" width="33.3227" height="33" rx="16.5" stroke="white"/>
<mask id="mask0_379_3080" style="mask-type:alpha" maskUnits="userSpaceOnUse" x="7" y="7" width="20" height="20">
<rect x="7.80078" y="7.72729" width="18.7215" height="18.5455" fill="#D9D9D9"/>
</mask>
<g mask="url(#mask0_379_3080)">
<path fill-rule="evenodd" clip-rule="evenodd" d="M9.83711 18.1677V17.9883C9.86366 17.4578 10.0353 16.9438 10.3343 16.4993C10.8321 15.9653 11.1728 15.3109 11.3208 14.6048C11.3208 14.059 11.3208 13.5055 11.3689 12.9598C11.6175 10.3325 14.24 8.51593 16.8304 8.51593H16.8946C19.485 8.51593 22.1075 10.3325 22.3641 12.9598C22.4122 13.5055 22.3641 14.059 22.4042 14.6048C22.5542 15.3125 22.8945 15.9689 23.3906 16.5071C23.6919 16.9477 23.8638 17.4598 23.8879 17.9883V18.1599C23.9058 18.8726 23.658 19.5676 23.1901 20.1167C22.5719 20.7587 21.7331 21.1582 20.8323 21.2394C18.1909 21.52 15.526 21.52 12.8846 21.2394C11.9849 21.1547 11.1472 20.7558 10.5268 20.1167C10.0662 19.5672 9.82175 18.8763 9.83711 18.1677Z" stroke="white" stroke-width="1.5" stroke-linecap="round" stroke-linejoin="round"/>
<path d="M14.8413 23.9525C15.254 24.4656 15.8601 24.7977 16.5254 24.8752C17.1906 24.9528 17.8603 24.7694 18.3861 24.3657C18.5478 24.2462 18.6933 24.1074 18.8191 23.9525" stroke="white" stroke-width="1.5" stroke-linecap="round" stroke-linejoin="round"/>
<rect width="5" height="5" rx="2.5" transform="matrix(1 0 0 -1 18.9434 12.8782)" fill="#D72C0D"/>
</g>
</svg>
