<svg width="35" height="35" viewBox="0 0 35 35" fill="none" xmlns="http://www.w3.org/2000/svg">
<rect x="0.5" y="0.5" width="33.6019" height="33.6019" rx="16.801" stroke="white"/>
<mask id="mask0_100_4458" style="mask-type:alpha" maskUnits="userSpaceOnUse" x="7" y="7" width="20" height="20">
<rect x="7.86401" y="7.86407" width="18.8738" height="18.8738" fill="#D9D9D9"/>
</mask>
<g mask="url(#mask0_100_4458)">
</g>
<g clip-path="url(#clip0_100_4458)">
<path d="M11.0096 12.5825H9.43677V23.5922C9.43677 24.4573 10.1445 25.165 11.0096 25.165H22.0193V23.5922H11.0096V12.5825Z" fill="white"/>
<path d="M23.5922 9.43689H14.1553C13.2903 9.43689 12.5825 10.1447 12.5825 11.0097V20.4466C12.5825 21.3116 13.2903 22.0194 14.1553 22.0194H23.5922C24.4573 22.0194 25.165 21.3116 25.165 20.4466V11.0097C25.165 10.1447 24.4573 9.43689 23.5922 9.43689ZM18.8816 19.6602C18.4177 19.6602 18.0559 19.2906 18.0559 18.8345C18.0559 18.3705 18.4255 18.0166 18.8816 18.0166C19.3456 18.0166 19.6995 18.3705 19.6995 18.8345C19.6916 19.2906 19.3456 19.6602 18.8816 19.6602ZM20.8477 14.8081C20.3522 15.5394 19.8804 15.7596 19.6209 16.2315C19.5186 16.4202 19.4793 16.546 19.4793 17.1594H18.284C18.284 16.837 18.2368 16.3101 18.4884 15.8618C18.8109 15.2878 19.4164 14.9496 19.7703 14.4463C20.1478 13.9115 19.9354 12.9207 18.8738 12.9207C18.1817 12.9207 17.8357 13.4476 17.6942 13.888L16.6168 13.4397C16.9156 12.5511 17.7099 11.7961 18.8659 11.7961C19.8332 11.7961 20.5016 12.2365 20.8398 12.787C21.1308 13.2667 21.2959 14.1475 20.8477 14.8081Z" fill="white"/>
</g>
<defs>
<clipPath id="clip0_100_4458">
<rect width="18.8738" height="18.8738" fill="white" transform="translate(7.86401 7.86407)"/>
</clipPath>
</defs>
</svg>
